<?xml version="1.0" encoding="utf-8"?><!DOCTYPE svg PUBLIC "-//W3C//DTD SVG 1.1//EN" "http://www.w3.org/Graphics/SVG/1.1/DTD/svg11.dtd"><svg version="1.1" fill="#6d7383" id="Layer_1" xmlns="http://www.w3.org/2000/svg" xmlns:xlink="http://www.w3.org/1999/xlink" x="0px" y="0px"	 width="13px" height="13px" viewBox="0 0 13 13" enable-background="new 0 0 13 13" xml:space="preserve"><g>	<g>		<path d="M4.665,2.896C4.102,3.198,3.708,3.487,3.484,3.781c-0.293,0.383-0.44,0.901-0.44,1.562V8.87			c0,0.083,0.039,0.124,0.121,0.124h1.399c0.086,0,0.129-0.041,0.129-0.124V5.479c0-0.465,0.021-0.781,0.064-0.951			C4.818,4.29,4.966,4.06,5.204,3.837L8.2,8.917c0.03,0.052,0.073,0.078,0.127,0.078h1.53c0.141,0,0.175-0.062,0.103-0.187			C8.762,6.79,8.148,5.762,8.116,5.724C8.676,5.425,9.074,5.129,9.3,4.838c0.292-0.382,0.438-0.903,0.438-1.565V0.138			C9.738,0.047,9.7,0,9.618,0H8.217C8.133,0,8.089,0.047,8.089,0.138v3.01c0,0.505-0.013,0.811-0.034,0.913			C8,4.282,7.84,4.523,7.576,4.789L4.821,0.117C4.772,0.04,4.726,0,4.683,0H3.164C3.015,0,2.98,0.069,3.062,0.204L4.665,2.896z"/>	</g></g></svg>