<?xml version="1.0" encoding="utf-8"?><!-- Generator: Adobe Illustrator 16.0.0, SVG Export Plug-In . SVG Version: 6.00 Build 0)  --><!DOCTYPE svg PUBLIC "-//W3C//DTD SVG 1.1//EN" "http://www.w3.org/Graphics/SVG/1.1/DTD/svg11.dtd"><svg fill="#414B67" version="1.1" id="Layer_1" xmlns="http://www.w3.org/2000/svg" xmlns:xlink="http://www.w3.org/1999/xlink" x="0px" y="0px"	 width="16px" height="16px" viewBox="1.5 1.5 16 16" enable-background="new 1.5 1.5 16 16" xml:space="preserve"><path fill="#414A68" d="M16.5,13.543c-1.143-1.144-1.758-2.365-2-4.001c-0.357-2.423-1.408-5-4-5v-2c0-0.44-0.542-1.042-1-1.042	c-0.457,0-1,0.602-1,1.042v2c-2.937,0-3.646,2.578-4,5c-0.239,1.636-0.866,2.857-2,4.001c0-0.043,0,0.957,0,0.957s0.669,0,1,0h3	c0.039,2.004,1.526,3,3,3c1.475,0,2.945-1.01,3-3h3c0.334,0,1,0,1,0S16.5,13.5,16.5,13.543z M9.501,15.742	c-1.107,0.033-1-0.688-1-1.199h1h1C10.501,15.133,10.503,15.789,9.501,15.742z M9.501,12.543h-4c0.967-1.053,0.842-1.965,1-3	c0.339-2.236,0.72-3,3-3c2.306,0,2.658,0.764,3,3c0.158,1.034,0.037,2.122,1,3H9.501z"/></svg>