<?xml version="1.0" encoding="utf-8"?><!-- Generator: Adobe Illustrator 21.1.0, SVG Export Plug-In . SVG Version: 6.00 Build 0)  --><svg version="1.1" id="Layer_1" xmlns="http://www.w3.org/2000/svg" xmlns:xlink="http://www.w3.org/1999/xlink" x="0px" y="0px"	 viewBox="0 0 226.7 55.7" style="enable-background:new 0 0 226.7 55.7;" xml:space="preserve"><g>	<g>		<path fill="#E61E26" d="M207.7,42.1c1.5,1.5,3.9,1.5,5.4,0l12.4-12.4c1.5-1.5,1.5-3.9,0-5.4l-12.4-12.4c-1.5-1.5-3.9-1.5-5.4,0			l-12.4,12.4c-1.5,1.5-1.5,3.9,0,5.4L207.7,42.1z"/>	</g></g><g>	<g>		<g>			<path fill="#535352" d="M45,22.5c-1.5-1.5-3.7-2.1-7.1-2.1h-7.3v17.2h16.6v-8.1C47.2,26,46.4,23.9,45,22.5z M43.2,34.1h-8.7V23.9				h3.3c1.9,0,3.2,0.4,4,1.2c1,1,1.4,2.4,1.4,4.2V34.1z"/>		</g>	</g>	<g>		<path fill="#535352" d="M62.1,37.5h4l4.3-14.1c0.6-1.9-0.3-3.1-2.3-3.1h-7.4V16h-3.9v7.9h9.5L62.1,37.5z"/>	</g>	<path fill="#535352" d="M106.1,37.9c6,0,9.9-2.9,9.9-9c0-5.8-3.4-9-9-9c-4.8,0-7.8,2.8-7.8,6.3c0,3.2,2.3,5.6,6.4,5.6c0.6,0,0.9,0,1,0		v-3.2c-0.2,0.1-0.3,0.1-0.6,0.1c-1.7,0-2.8-1.2-2.8-2.7c0-1.6,1.3-2.8,3.6-2.8c3,0,5,1.9,5,5.6c0,4-2.3,5.6-6,5.6		c-1.5,0-3.7-0.3-5.7-1l-0.9,3.1C101.2,37.5,104.1,37.9,106.1,37.9"/>	<path fill="#535352" d="M162.1,37.6c4.1,0,6.1-2.1,6.1-6.3v-11h-3.9v11.2c0,1.7-0.9,2.8-2.4,2.8c-0.7,0-1.3-0.2-1.7-0.3l-0.8,3.1		C160.2,37.5,161.2,37.6,162.1,37.6"/>	<g>		<rect x="49.9" y="20.3" fill="#535352" width="4" height="9.3"/>	</g>	<g>		<path fill="#535352" d="M73,37.5h6.2c3.4,0,5.6-0.6,7.1-2.1c1.4-1.4,2.1-3.6,2.1-6.9v-8.3h-3.9v8.3c0,1.9-0.5,3.3-1.3,4.2			c-0.5,0.5-1.5,1-2.2,1l-3.7-13.5H73l4,13.8H73V37.5z"/>	</g>	<g>		<rect x="92.1" y="20.3" fill="#535352" width="4" height="17.2"/>	</g>	<g>		<path fill="#535352" d="M130.1,37.5h3.9v-8.1c0-3.3-0.7-5.5-2.1-6.9c-1.5-1.5-3.7-2.1-7.1-2.1h-6.3v3.6h6.1c1.9,0,3.4,0.4,4.2,1.2			c0.9,1,1.2,2.4,1.2,4.2V37.5z"/>	</g>	<g>		<path fill="#535352" d="M151.5,37.5h4l4.3-14.1c0.6-1.9-0.3-3.1-2.3-3.1h-14v3.6h12.1L151.5,37.5z"/>	</g>	<g>		<path fill="#535352" d="M171.1,37.5h15.6v-3.4h-2.6v-4.7c0-3.3-0.7-5.5-2.1-6.9c-1.5-1.5-3.7-2.1-7.1-2.1h-3.6v3.6h3.4			c2,0,3.3,0.3,4.1,1.1c0.9,1,1.3,2.5,1.3,4.3v4.8h-9.1V37.5z"/>	</g>	<g>		<rect x="118.7" y="28.4" fill="#535352" width="4" height="9.1"/>	</g>	<g>		<rect x="143.7" y="28.6" fill="#535352" width="4" height="13.6"/>	</g></g></svg>