<?xml version="1.0" encoding="utf-8"?>
<!-- Generator: Adobe Illustrator 16.0.4, SVG Export Plug-In . SVG Version: 6.00 Build 0)  -->
<!DOCTYPE svg PUBLIC "-//W3C//DTD SVG 1.1//EN" "http://www.w3.org/Graphics/SVG/1.1/DTD/svg11.dtd">
<svg fill="#414b68" version="1.1" id="Layer_1" xmlns="http://www.w3.org/2000/svg" xmlns:xlink="http://www.w3.org/1999/xlink" x="0px" y="0px"
	 width="16px" height="16px" viewBox="0 0 16 16" enable-background="new 0 0 16 16" xml:space="preserve">
<g>
	<path fill="none" d="M1.917,3.013v9.975c0,0.552,0.448,1,0.998,1h9.013c0.55,0,0.998-0.448,0.998-1V4.956h-1.991
		c-0.551,0-0.998-0.447-0.998-1V2.013H2.916C2.366,2.013,1.917,2.461,1.917,3.013z"/>
</g>
<g>
	<path fill="#414B68" d="M10.002,0.013H2.916c-1.653,0-2.994,1.343-2.994,3v9.975c0,1.657,1.34,3,2.994,3h9.013
		c1.653,0,2.994-1.343,2.994-3V4.956L10.002,0.013z M12.926,12.987c0,0.552-0.448,1-0.998,1H2.916c-0.55,0-0.998-0.448-0.998-1
		V3.013c0-0.552,0.448-1,0.998-1H8.94v2.943c0,0.553,0.447,1,0.998,1h2.989V12.987z"/>
</g>
<polygon fill="#414B68" points="8.412,6.987 6.927,8.472 5.441,6.987 3.461,6.987 5.937,9.464 3.461,11.939 5.441,11.939 
	6.927,10.453 9.403,12.929 11.383,12.929 7.917,9.464 10.393,6.987 "/>
</svg>
