<?xml version="1.0" encoding="utf-8"?><!-- Generator: Adobe Illustrator 16.0.4, SVG Export Plug-In . SVG Version: 6.00 Build 0)  --><!DOCTYPE svg PUBLIC "-//W3C//DTD SVG 1.1//EN" "http://www.w3.org/Graphics/SVG/1.1/DTD/svg11.dtd"><svg fill="#414b67" version="1.1" id="Layer_1" xmlns="http://www.w3.org/2000/svg" xmlns:xlink="http://www.w3.org/1999/xlink" x="0px" y="0px"	 width="18px" height="18px" viewBox="0 0 18 18" enable-background="new 0 0 18 18" xml:space="preserve"><g>	<path d="M14.5,15.375h-11c-1.585,0-2.875-1.29-2.875-2.875v-7c0-1.585,1.29-2.875,2.875-2.875h11c1.585,0,2.875,1.29,2.875,2.875v7		C17.375,14.085,16.085,15.375,14.5,15.375z M3.5,4.375c-0.62,0-1.125,0.505-1.125,1.125v7c0,0.62,0.505,1.125,1.125,1.125h11		c0.62,0,1.125-0.505,1.125-1.125v-7c0-0.62-0.505-1.125-1.125-1.125H3.5z"/>	<path d="M9.128,11.606c-0.257,0-0.505-0.104-0.689-0.288L1.99,5.851c-0.38-0.383-0.38-1.005,0-1.389		c0.382-0.385,0.999-0.385,1.38,0l5.61,4.622l5.336-4.415c0.301-0.45,0.907-0.569,1.354-0.266c0.447,0.302,0.564,0.913,0.267,1.364		l-6,5.405c-0.163,0.244-0.425,0.401-0.715,0.43C9.191,11.604,9.16,11.606,9.128,11.606"/></g></svg>