<svg version="1.1" xmlns="http://www.w3.org/2000/svg" xmlns:xlink="http://www.w3.org/1999/xlink" width="14" height="14" viewBox="0 0 14 14"><path id="red_search_icon" d="M10.854,12.975 C10.854,12.975 8.163,10.284 8.163,10.284 C7.371,10.727 6.472,11.000 5.500,11.000 C2.462,11.000 0.000,8.537 0.000,5.500 C0.000,2.463 2.462,0.000 5.500,-0.000 C5.500,-0.000 5.500,-0.000 5.500,-0.000 C8.538,0.000 11.000,2.463 11.000,5.500 C11.000,6.472 10.726,7.371 10.284,8.163 C10.284,8.163 12.975,10.854 12.975,10.854 C13.561,11.439 13.561,12.389 12.975,12.975 C12.389,13.561 11.439,13.561 10.854,12.975 zM5.500,2.000 C3.567,2.000 2.000,3.567 2.000,5.500 C2.000,7.433 3.567,9.000 5.500,9.000 C7.433,9.000 9.000,7.433 9.000,5.500 C9.000,3.567 7.433,2.000 5.500,2.000 z" fill="#C40019" /></svg>