<svg version="1.1" xmlns="http://www.w3.org/2000/svg" xmlns:xlink="http://www.w3.org/1999/xlink" width="18" height="18" viewBox="0 0 18 18"><g id="Pgisha"><g id="Shape-28-copy" ><path id="Shape-28-copy-fill" d="M15.622,9.900 C14.174,9.579 13.328,8.153 13.980,6.972 C15.968,3.377 14.072,1.902 11.974,1.902 C9.834,1.902 7.974,3.450 9.967,6.972 C10.639,8.161 9.609,9.586 8.191,9.900 C6.744,10.220 6.957,10.713 6.957,12.043 C6.957,12.043 16.990,12.043 16.990,12.043 C16.990,10.713 17.069,10.220 15.622,9.900 z" fill="#FFFEF8" /><path id="Shape-28-copy-stroke" d="M15.622,9.900 C14.174,9.579 13.328,8.153 13.980,6.972 C15.968,3.377 14.072,1.902 11.974,1.902 C9.834,1.902 7.974,3.450 9.967,6.972 C10.639,8.161 9.609,9.586 8.191,9.900 C6.744,10.220 6.957,10.713 6.957,12.043 C6.957,12.043 16.990,12.043 16.990,12.043 C16.990,10.713 17.069,10.220 15.622,9.900 z" fill="none" stroke="#414B68" stroke-width="2" /></g><g id="Shape-28-copy-2" ><path id="Shape-28-copy-2-fill" d="M10.612,13.956 C9.164,13.635 8.318,12.210 8.970,11.028 C10.958,7.433 9.062,5.958 6.964,5.958 C4.824,5.958 2.964,7.507 4.957,11.028 C5.629,12.217 4.599,13.643 3.181,13.956 C1.734,14.276 1.947,14.770 1.947,16.099 C1.947,16.099 11.980,16.099 11.980,16.099 C11.980,14.770 12.059,14.276 10.612,13.956 z" fill="#FFFEF8" /><path id="Shape-28-copy-2-stroke" d="M10.612,13.956 C9.164,13.635 8.318,12.210 8.970,11.028 C10.958,7.433 9.062,5.958 6.964,5.958 C4.824,5.958 2.964,7.507 4.957,11.028 C5.629,12.217 4.599,13.643 3.181,13.956 C1.734,14.276 1.947,14.770 1.947,16.099 C1.947,16.099 11.980,16.099 11.980,16.099 C11.980,14.770 12.059,14.276 10.612,13.956 z" fill="none" stroke="#414B68" stroke-width="2" /></g></g></svg>