<?xml version="1.0" encoding="utf-8"?>
<!-- Generator: Adobe Illustrator 14.0.0, SVG Export Plug-In . SVG Version: 6.00 Build 43363)  -->
<!DOCTYPE svg PUBLIC "-//W3C//DTD SVG 1.1//EN" "http://www.w3.org/Graphics/SVG/1.1/DTD/svg11.dtd">
<svg version="1.1" id="svg-print" xmlns="http://www.w3.org/2000/svg" xmlns:xlink="http://www.w3.org/1999/xlink" x="0px" y="0px"
	 width="19px" height="19px" viewBox="0 0 19 19" style="enable-background:new 0 0 19 19;" xml:space="preserve">
<line style="fill:none;" x1="5" y1="17" x2="14" y2="17"/>
<g>
	<g>
		<g>
			<rect y="7.021" style="fill:#414B68;" width="19" height="3"/>
		</g>
	</g>
	<path style="fill:none;" d="M14,15c0.552,0,1-0.447,1-1V5c0-0.552-0.448-1-1-1H5C4.448,4,4,4.447,4,5v9c0,0.553,0.448,1,1,1"/>
	<g>
		<path style="fill:none;" d="M14,4H5C4.448,4,4,4.448,4,5v9c0,0.553,0.448,1,1,1h9c0.552,0,1-0.447,1-1V5C15,4.448,14.552,4,14,4z"
			/>
		<path style="fill:#414B68;" d="M17,10V9.875v-5C17,3.221,15.904,2,14.25,2h-9C3.596,2,2,3.221,2,4.875v5V10H0v3h2v0.042v0.833
			C2,15.529,3.596,17,5.25,17h9c1.654,0,2.75-1.471,2.75-3.125v-0.833V13h2v-3H17z M15,14c0,0.553-0.448,1-1,1H5
			c-0.552,0-1-0.447-1-1V5c0-0.552,0.448-1,1-1h9c0.552,0,1,0.448,1,1V14z"/>
	</g>
	<polygon style="fill:#414B68;" points="7,11 7,12 7,13 12,13 12,12 12,11 	"/>
	<line style="fill:none;" x1="5" y1="15" x2="14" y2="15"/>
	<line style="fill:none;" x1="14" y1="15" x2="5" y2="15"/>
</g>
</svg>