<svg version="1.1" xmlns="http://www.w3.org/2000/svg" xmlns:xlink="http://www.w3.org/1999/xlink" width="15" height="15" viewBox="0 0 15 15"><path id="profile_icon" d="M13.678,6.150 C13.678,6.150 12.977,6.150 12.977,6.150 C12.640,6.150 12.341,5.940 12.217,5.627 C12.199,5.581 12.180,5.536 12.160,5.491 C12.026,5.180 12.089,4.820 12.328,4.581 C12.328,4.581 12.823,4.086 12.823,4.086 C13.105,3.804 13.105,3.347 12.823,3.065 C12.823,3.065 11.935,2.177 11.935,2.177 C11.653,1.895 11.196,1.895 10.914,2.177 C10.914,2.177 10.418,2.672 10.418,2.672 C10.179,2.911 9.819,2.974 9.509,2.840 C9.464,2.820 9.419,2.801 9.373,2.783 C9.060,2.659 8.850,2.360 8.850,2.023 C8.850,2.023 8.850,1.322 8.850,1.322 C8.850,0.923 8.527,0.600 8.128,0.600 C8.128,0.600 6.872,0.600 6.872,0.600 C6.473,0.600 6.150,0.923 6.150,1.322 C6.150,1.322 6.150,2.023 6.150,2.023 C6.150,2.360 5.940,2.659 5.627,2.783 C5.581,2.801 5.536,2.820 5.491,2.840 C5.180,2.974 4.820,2.911 4.581,2.672 C4.581,2.672 4.086,2.177 4.086,2.177 C3.804,1.895 3.347,1.895 3.065,2.177 C3.065,2.177 2.177,3.065 2.177,3.065 C1.895,3.347 1.895,3.804 2.177,4.086 C2.177,4.086 2.672,4.581 2.672,4.581 C2.911,4.820 2.974,5.180 2.840,5.491 C2.820,5.536 2.801,5.581 2.783,5.627 C2.659,5.940 2.360,6.150 2.023,6.150 C2.023,6.150 1.322,6.150 1.322,6.150 C0.923,6.150 0.600,6.473 0.600,6.872 C0.600,6.872 0.600,8.128 0.600,8.128 C0.600,8.527 0.923,8.850 1.322,8.850 C1.322,8.850 2.023,8.850 2.023,8.850 C2.360,8.850 2.659,9.059 2.783,9.373 C2.801,9.419 2.820,9.464 2.840,9.509 C2.974,9.819 2.911,10.179 2.672,10.418 C2.672,10.418 2.177,10.914 2.177,10.914 C1.895,11.196 1.895,11.653 2.177,11.935 C2.177,11.935 3.065,12.823 3.065,12.823 C3.347,13.105 3.804,13.105 4.086,12.823 C4.086,12.823 4.581,12.328 4.581,12.328 C4.820,12.089 5.180,12.026 5.491,12.160 C5.536,12.180 5.581,12.198 5.627,12.217 C5.940,12.341 6.150,12.640 6.150,12.977 C6.150,12.977 6.150,13.678 6.150,13.678 C6.150,14.077 6.473,14.400 6.872,14.400 C6.872,14.400 8.128,14.400 8.128,14.400 C8.527,14.400 8.850,14.077 8.850,13.678 C8.850,13.678 8.850,12.977 8.850,12.977 C8.850,12.640 9.060,12.341 9.373,12.217 C9.419,12.198 9.464,12.180 9.509,12.160 C9.819,12.026 10.179,12.089 10.418,12.328 C10.418,12.328 10.914,12.823 10.914,12.823 C11.196,13.105 11.653,13.105 11.935,12.823 C11.935,12.823 12.823,11.935 12.823,11.935 C13.105,11.653 13.105,11.196 12.823,10.914 C12.823,10.914 12.328,10.418 12.328,10.418 C12.089,10.179 12.026,9.819 12.160,9.509 C12.180,9.464 12.199,9.419 12.217,9.373 C12.341,9.059 12.640,8.850 12.977,8.850 C12.977,8.850 13.678,8.850 13.678,8.850 C14.077,8.850 14.400,8.527 14.400,8.128 C14.400,8.128 14.400,6.872 14.400,6.872 C14.400,6.473 14.077,6.150 13.678,6.150 zM7.500,10.055 C6.089,10.055 4.945,8.911 4.945,7.500 C4.945,6.089 6.089,4.945 7.500,4.945 C8.911,4.945 10.055,6.089 10.055,7.500 C10.055,8.911 8.911,10.055 7.500,10.055 z" fill="#414B68" /></svg>