<?xml version="1.0" encoding="utf-8"?><!-- Generator: Adobe Illustrator 16.0.0, SVG Export Plug-In . SVG Version: 6.00 Build 0)  --><!DOCTYPE svg PUBLIC "-//W3C//DTD SVG 1.1//EN" "http://www.w3.org/Graphics/SVG/1.1/DTD/svg11.dtd"><svg fill="#414B67" version="1.1" id="Layer_1" xmlns="http://www.w3.org/2000/svg" xmlns:xlink="http://www.w3.org/1999/xlink" x="0px" y="0px"	 width="14px" height="14px" viewBox="1 1 14 14" enable-background="new 1 1 14 14" xml:space="preserve"><g>	<path fill="#414B68" d="M13.001,8.004v3.695c0,0.598-0.406,1.324-1,1.324h-7.95c-0.595,0-1.077-0.517-1.077-1.111V4.004		c0-0.596,0.433-1,1.027-1h5.967l2.033-2c-0.133-0.016-8,0-8,0c-1.785,0-3,1.392-3,3.183v7.79c0,1.791,1.446,3.027,3.231,3.027		h7.539c1.78,0,3.229-1.48,3.229-3.271V6.004L13.001,8.004z"/></g><path fill="#414B68" d="M14.571,1.171c-0.447-0.303-1.055-0.184-1.355,0.266L7.879,8.854l-1.61-1.623	c-0.381-0.385-0.999-0.385-1.38,0c-0.38,0.384-0.38,1.005,0,1.389l2.447,2.469c0.185,0.187,0.433,0.353,0.69,0.353	c0.032,0,0.063-0.002,0.095-0.004c0.291-0.029,0.552-0.187,0.716-0.433l5.998-8.468C15.133,2.086,15.019,1.473,14.571,1.171z"/></svg>