<?xml version="1.0" encoding="utf-8"?><!-- Generator: Adobe Illustrator 16.0.0, SVG Export Plug-In . SVG Version: 6.00 Build 0)  --><!DOCTYPE svg PUBLIC "-//W3C//DTD SVG 1.1//EN" "http://www.w3.org/Graphics/SVG/1.1/DTD/svg11.dtd"><svg fill="#FFFFFF" version="1.1" id="Layer_1" xmlns="http://www.w3.org/2000/svg" xmlns:xlink="http://www.w3.org/1999/xlink" x="0px" y="0px"	 width="17px" height="17px" viewBox="0.5 0.5 17 17" enable-background="new 0.5 0.5 17 17" xml:space="preserve"><g>	<g>		<path d="M15.293,0.5H2.707c-0.809,0-2.162,1.348-2.162,2.154v10.681c0,0.731,1.108,1.896,1.919,2.11v1.878h3.617v-1.834h5.77			v1.834h3.617v-1.866c0.814-0.16,1.986-1.368,1.986-2.121V2.654C17.455,1.848,16.102,0.5,15.293,0.5z M7.11,11.784			c-2.067,0-3.743-1.689-3.743-3.774S5.043,4.235,7.11,4.235c2.066,0,3.741,1.689,3.741,3.774S9.176,11.784,7.11,11.784z			 M14.576,10.756c0,0.475-0.492,0.858-0.967,0.858c-0.477,0-0.861-0.384-0.861-0.858V7.965c0-0.474,0.385-0.857,0.861-0.857			c0.475,0,0.967,0.383,0.967,0.857V10.756z M7.099,6.147c-0.993,0-1.797,0.799-1.797,1.783c0,0.985,0.804,1.784,1.797,1.784			s1.798-0.8,1.798-1.784S8.092,6.147,7.099,6.147z"/>	</g></g></svg>