<?xml version="1.0" encoding="utf-8"?><!-- Generator: Adobe Illustrator 16.0.0, SVG Export Plug-In . SVG Version: 6.00 Build 0)  --><!DOCTYPE svg PUBLIC "-//W3C//DTD SVG 1.1//EN" "http://www.w3.org/Graphics/SVG/1.1/DTD/svg11.dtd"><svg fill="#FFFFFF" version="1.1" id="Layer_1" xmlns="http://www.w3.org/2000/svg" xmlns:xlink="http://www.w3.org/1999/xlink" x="0px" y="0px"	 width="17px" height="17px" viewBox="-1 -1 17 17" enable-background="new -1 -1 17 17" xml:space="preserve"><path d="M10.98-1H0.006c-0.409,0-0.98,0.569-0.98,0.977L-1,11.984c0,0.406,0.572,0.979,0.98,0.979H11c0.408,0,1-0.57,1-0.979V-0.023	C12-0.431,11.389-1,10.98-1z M7,9.984H1v-2h6V9.984z M7,6.984H1v-2h6V6.984z M10,9.984H8v-2h2V9.984z M10,6.984H8v-2h2V6.984z	 M10,3.984H1v-2h9V3.984z"/></svg>