<?xml version="1.0" encoding="utf-8"?><!-- Generator: Adobe Illustrator 16.0.0, SVG Export Plug-In . SVG Version: 6.00 Build 0)  --><!DOCTYPE svg PUBLIC "-//W3C//DTD SVG 1.1//EN" "http://www.w3.org/Graphics/SVG/1.1/DTD/svg11.dtd"><svg fill="#FFFFFF" version="1.1" id="Layer_1" xmlns="http://www.w3.org/2000/svg" xmlns:xlink="http://www.w3.org/1999/xlink" x="0px" y="0px"	 width="17px" height="17px" viewBox="-0.5 -0.5 17 17" enable-background="new -0.5 -0.5 17 17" xml:space="preserve"><path d="M1,1.516C1,2.353,1.679,3,2.516,3h8.968C12.32,2.999,13,2.353,13,1.516l0,0C13,0.679,12.32,0,11.484,0H2.516	C1.679,0,1,0.679,1,1.516L1,1.516z"/><path d="M0,5.547C0,6.384,0.679,7,1.516,7h8.968C11.32,6.999,12,6.384,12,5.547l0,0C12,4.71,11.32,4,10.484,4H1.516	C0.679,4,0,4.71,0,5.547L0,5.547z"/><path d="M1,9.547C1,10.384,1.679,11,2.516,11h8.968C12.322,11,13,10.384,13,9.547l0,0C13,8.71,12.322,8,11.484,8H2.516	C1.679,8,1,8.71,1,9.547L1,9.547z"/><path d="M1,13.484C1,14.32,1.679,15,2.516,15h8.968C12.32,15,13,14.32,13,13.484l0,0C13,12.646,12.32,12,11.484,12H2.516	C1.679,12.001,1,12.646,1,13.484L1,13.484z"/></svg>