<?xml version="1.0" encoding="utf-8"?><!-- Generator: Adobe Illustrator 16.0.0, SVG Export Plug-In . SVG Version: 6.00 Build 0)  --><!DOCTYPE svg PUBLIC "-//W3C//DTD SVG 1.1//EN" "http://www.w3.org/Graphics/SVG/1.1/DTD/svg11.dtd"><svg fill="white" version="1.1" id="Layer_1" xmlns="http://www.w3.org/2000/svg" xmlns:xlink="http://www.w3.org/1999/xlink" x="0px" y="0px"	 width="17px" height="17px" viewBox="1 1 17 17" enable-background="new 1 1 17 17" xml:space="preserve"><g>	<g>		<path d="M16.347,8.182L2.221,8.178C1.814,8.178,1,9.007,1,9.421v7.334C1,17.17,1.814,18,2.221,18h14.521			c0.407,0,1.221-0.83,1.221-1.244V9.546C17.963,9.131,16.756,8.182,16.347,8.182z M2.781,11.729c0-0.483,0.284-0.877,0.634-0.877			h3.196c0.352,0,0.635,0.393,0.635,0.877v0.023c0,0.484-0.284,0.877-0.635,0.877H3.415c-0.351,0-0.634-0.393-0.634-0.877V11.729z			 M10.159,15.315H3.455c-0.373,0-0.675-0.398-0.675-0.891c0-0.494,0.302-0.894,0.675-0.894h6.704c0.373,0,0.676,0.399,0.676,0.894			C10.835,14.917,10.532,15.315,10.159,15.315z M14.459,15.315h-1.93c-0.449,0-0.812-0.398-0.812-0.891			c0-0.494,0.363-0.894,0.812-0.894h1.93c0.449,0,0.812,0.399,0.812,0.894C15.271,14.917,14.908,15.315,14.459,15.315z M16.169,7.28			c0-0.412-0.427-1.589-0.427-1.589c-0.11-0.502-1.143-1.238-1.55-1.103L5.472,7.28C5.472,7.28,14.785,7.222,16.169,7.28z"/>	</g></g></svg>